<mxfile host="Electron" agent="Mozilla/5.0 (Windows NT 10.0; Win64; x64) AppleWebKit/537.36 (KHTML, like Gecko) draw.io/25.0.1 Chrome/128.0.6613.186 Electron/32.2.6 Safari/537.36" version="25.0.1">
  <diagram id="R2lEEEUBdFMjLlhIrx00" name="Page-1">
    <mxGraphModel dx="1194" dy="824" grid="1" gridSize="10" guides="1" tooltips="1" connect="1" arrows="1" fold="1" page="1" pageScale="1" pageWidth="850" pageHeight="1100" math="0" shadow="0" extFonts="Permanent Marker^https://fonts.googleapis.com/css?family=Permanent+Marker">
      <root>
        <mxCell id="0" />
        <mxCell id="1" parent="0" />
        <mxCell id="go56Lrlr8OW-n8DFi2HJ-61" value="" style="edgeStyle=elbowEdgeStyle;fontSize=12;html=1;endArrow=ERoneToMany;startArrow=ERmandOne;rounded=0;entryX=0;entryY=0.5;entryDx=0;entryDy=0;exitX=1.017;exitY=0.633;exitDx=0;exitDy=0;exitPerimeter=0;strokeWidth=3;labelBackgroundColor=none;fontColor=default;strokeColor=#FFFFFF;" parent="1" source="go56Lrlr8OW-n8DFi2HJ-51" target="go56Lrlr8OW-n8DFi2HJ-47" edge="1">
          <mxGeometry width="100" height="100" relative="1" as="geometry">
            <mxPoint x="550" y="850" as="sourcePoint" />
            <mxPoint x="700" y="890" as="targetPoint" />
          </mxGeometry>
        </mxCell>
        <mxCell id="go56Lrlr8OW-n8DFi2HJ-46" value="Schedule" style="rounded=0;whiteSpace=wrap;html=1;fontSize=15;fontStyle=1;labelBackgroundColor=none;fillColor=#EEEEEE;strokeColor=#FFFFFF;fontColor=#1A1A1A;" parent="1" vertex="1">
          <mxGeometry x="600" y="410" width="120" height="60" as="geometry" />
        </mxCell>
        <mxCell id="go56Lrlr8OW-n8DFi2HJ-47" value="Courses" style="rounded=0;whiteSpace=wrap;html=1;fontSize=15;fontStyle=1;labelBackgroundColor=none;fillColor=#EEEEEE;strokeColor=#FFFFFF;fontColor=#1A1A1A;" parent="1" vertex="1">
          <mxGeometry x="680" y="910" width="120" height="60" as="geometry" />
        </mxCell>
        <mxCell id="go56Lrlr8OW-n8DFi2HJ-48" value="Classroom" style="rounded=0;whiteSpace=wrap;html=1;fontSize=15;fontStyle=1;labelBackgroundColor=none;fillColor=#EEEEEE;strokeColor=#FFFFFF;fontColor=#1A1A1A;" parent="1" vertex="1">
          <mxGeometry x="600" y="230" width="120" height="60" as="geometry" />
        </mxCell>
        <mxCell id="go56Lrlr8OW-n8DFi2HJ-49" value="Enrollments" style="rounded=0;whiteSpace=wrap;html=1;fontSize=15;fontStyle=1;labelBackgroundColor=none;fillColor=#EEEEEE;strokeColor=#FFFFFF;fontColor=#1A1A1A;" parent="1" vertex="1">
          <mxGeometry x="250" y="910" width="120" height="60" as="geometry" />
        </mxCell>
        <mxCell id="go56Lrlr8OW-n8DFi2HJ-50" value="Faculty" style="rounded=0;whiteSpace=wrap;html=1;fontSize=15;fontStyle=1;labelBackgroundColor=none;fillColor=#EEEEEE;strokeColor=#FFFFFF;fontColor=#1A1A1A;" parent="1" vertex="1">
          <mxGeometry x="610" y="670" width="120" height="60" as="geometry" />
        </mxCell>
        <mxCell id="go56Lrlr8OW-n8DFi2HJ-51" value="Department" style="rounded=0;whiteSpace=wrap;html=1;fontSize=15;fontStyle=1;labelBackgroundColor=none;fillColor=#EEEEEE;strokeColor=#FFFFFF;fontColor=#1A1A1A;" parent="1" vertex="1">
          <mxGeometry x="390" y="820" width="120" height="60" as="geometry" />
        </mxCell>
        <mxCell id="go56Lrlr8OW-n8DFi2HJ-52" value="Fee" style="rounded=0;whiteSpace=wrap;html=1;fontSize=15;fontStyle=1;labelBackgroundColor=none;fillColor=#EEEEEE;strokeColor=#FFFFFF;fontColor=#1A1A1A;" parent="1" vertex="1">
          <mxGeometry x="330" y="490" width="120" height="60" as="geometry" />
        </mxCell>
        <mxCell id="go56Lrlr8OW-n8DFi2HJ-53" value="Library" style="rounded=0;whiteSpace=wrap;html=1;fontSize=15;fontStyle=1;labelBackgroundColor=none;fillColor=#EEEEEE;strokeColor=#FFFFFF;fontColor=#1A1A1A;" parent="1" vertex="1">
          <mxGeometry x="260" y="290" width="120" height="60" as="geometry" />
        </mxCell>
        <mxCell id="go56Lrlr8OW-n8DFi2HJ-54" value="Student" style="rounded=0;whiteSpace=wrap;html=1;fontSize=15;fontStyle=1;labelBackgroundColor=none;fillColor=#EEEEEE;strokeColor=#FFFFFF;fontColor=#1A1A1A;" parent="1" vertex="1">
          <mxGeometry x="70" y="680" width="120" height="60" as="geometry" />
        </mxCell>
        <mxCell id="go56Lrlr8OW-n8DFi2HJ-57" value="" style="edgeStyle=entityRelationEdgeStyle;fontSize=12;html=1;endArrow=ERoneToMany;startArrow=ERmandOne;rounded=0;entryX=0;entryY=0.5;entryDx=0;entryDy=0;exitX=1;exitY=0.333;exitDx=0;exitDy=0;exitPerimeter=0;strokeWidth=3;labelBackgroundColor=none;fontColor=default;strokeColor=#FFFFFF;" parent="1" source="go56Lrlr8OW-n8DFi2HJ-54" target="go56Lrlr8OW-n8DFi2HJ-52" edge="1">
          <mxGeometry width="100" height="100" relative="1" as="geometry">
            <mxPoint x="190" y="710" as="sourcePoint" />
            <mxPoint x="290" y="610" as="targetPoint" />
          </mxGeometry>
        </mxCell>
        <mxCell id="go56Lrlr8OW-n8DFi2HJ-58" value="" style="edgeStyle=entityRelationEdgeStyle;fontSize=12;html=1;endArrow=ERoneToMany;startArrow=ERmandOne;rounded=0;exitX=1;exitY=0.75;exitDx=0;exitDy=0;entryX=0;entryY=0.75;entryDx=0;entryDy=0;strokeWidth=3;labelBackgroundColor=none;fontColor=default;strokeColor=#FFFFFF;" parent="1" source="go56Lrlr8OW-n8DFi2HJ-54" target="go56Lrlr8OW-n8DFi2HJ-49" edge="1">
          <mxGeometry width="100" height="100" relative="1" as="geometry">
            <mxPoint x="170" y="910" as="sourcePoint" />
            <mxPoint x="240" y="1060" as="targetPoint" />
            <Array as="points">
              <mxPoint x="150" y="990" />
              <mxPoint x="210" y="780" />
            </Array>
          </mxGeometry>
        </mxCell>
        <mxCell id="go56Lrlr8OW-n8DFi2HJ-59" value="" style="edgeStyle=entityRelationEdgeStyle;fontSize=12;html=1;endArrow=ERoneToMany;startArrow=ERmandOne;rounded=0;entryX=0;entryY=0.5;entryDx=0;entryDy=0;strokeWidth=3;labelBackgroundColor=none;fontColor=default;strokeColor=#FFFFFF;" parent="1" target="go56Lrlr8OW-n8DFi2HJ-53" edge="1">
          <mxGeometry width="100" height="100" relative="1" as="geometry">
            <mxPoint x="190" y="690" as="sourcePoint" />
            <mxPoint x="280" y="490" as="targetPoint" />
            <Array as="points">
              <mxPoint x="200" y="550" />
            </Array>
          </mxGeometry>
        </mxCell>
        <mxCell id="go56Lrlr8OW-n8DFi2HJ-60" value="" style="edgeStyle=entityRelationEdgeStyle;fontSize=12;html=1;endArrow=ERoneToMany;startArrow=ERmandOne;rounded=0;entryX=0;entryY=0.5;entryDx=0;entryDy=0;exitX=1;exitY=0.5;exitDx=0;exitDy=0;exitPerimeter=0;strokeWidth=3;labelBackgroundColor=none;fontColor=default;strokeColor=#FFFFFF;" parent="1" source="go56Lrlr8OW-n8DFi2HJ-54" edge="1">
          <mxGeometry width="100" height="100" relative="1" as="geometry">
            <mxPoint x="200" y="710" as="sourcePoint" />
            <mxPoint x="390" y="850" as="targetPoint" />
            <Array as="points">
              <mxPoint x="410" y="1050" />
            </Array>
          </mxGeometry>
        </mxCell>
        <mxCell id="go56Lrlr8OW-n8DFi2HJ-62" value="" style="edgeStyle=elbowEdgeStyle;fontSize=12;html=1;endArrow=ERoneToMany;startArrow=ERmandOne;rounded=0;entryX=1;entryY=0.75;entryDx=0;entryDy=0;exitX=0;exitY=0.75;exitDx=0;exitDy=0;strokeWidth=3;labelBackgroundColor=none;fontColor=default;strokeColor=#FFFFFF;" parent="1" source="go56Lrlr8OW-n8DFi2HJ-47" target="go56Lrlr8OW-n8DFi2HJ-49" edge="1">
          <mxGeometry width="100" height="100" relative="1" as="geometry">
            <mxPoint x="670" y="965" as="sourcePoint" />
            <mxPoint x="380" y="965" as="targetPoint" />
          </mxGeometry>
        </mxCell>
        <mxCell id="go56Lrlr8OW-n8DFi2HJ-63" value="" style="edgeStyle=elbowEdgeStyle;fontSize=12;html=1;endArrow=ERoneToMany;startArrow=ERmandOne;rounded=0;entryX=0;entryY=0.5;entryDx=0;entryDy=0;exitX=1.017;exitY=0.633;exitDx=0;exitDy=0;exitPerimeter=0;strokeWidth=3;labelBackgroundColor=none;fontColor=default;strokeColor=#FFFFFF;" parent="1" target="go56Lrlr8OW-n8DFi2HJ-50" edge="1">
          <mxGeometry width="100" height="100" relative="1" as="geometry">
            <mxPoint x="510" y="840" as="sourcePoint" />
            <mxPoint x="658" y="922" as="targetPoint" />
            <Array as="points">
              <mxPoint x="588" y="842" />
            </Array>
          </mxGeometry>
        </mxCell>
        <mxCell id="go56Lrlr8OW-n8DFi2HJ-64" value="" style="edgeStyle=elbowEdgeStyle;fontSize=12;html=1;endArrow=ERoneToMany;startArrow=ERmandOne;rounded=0;entryX=0.583;entryY=1;entryDx=0;entryDy=0;exitX=0.5;exitY=0;exitDx=0;exitDy=0;entryPerimeter=0;strokeWidth=3;labelBackgroundColor=none;fontColor=default;strokeColor=#FFFFFF;" parent="1" source="go56Lrlr8OW-n8DFi2HJ-50" target="go56Lrlr8OW-n8DFi2HJ-46" edge="1">
          <mxGeometry width="100" height="100" relative="1" as="geometry">
            <mxPoint x="620" y="650" as="sourcePoint" />
            <mxPoint x="720" y="510" as="targetPoint" />
            <Array as="points">
              <mxPoint x="670" y="560" />
              <mxPoint x="670" y="590" />
            </Array>
          </mxGeometry>
        </mxCell>
        <mxCell id="go56Lrlr8OW-n8DFi2HJ-66" value="" style="edgeStyle=elbowEdgeStyle;fontSize=12;html=1;endArrow=ERoneToMany;startArrow=ERmandOne;rounded=0;exitX=1;exitY=0.5;exitDx=0;exitDy=0;entryX=1;entryY=0.5;entryDx=0;entryDy=0;strokeWidth=3;labelBackgroundColor=none;fontColor=default;strokeColor=#FFFFFF;" parent="1" source="go56Lrlr8OW-n8DFi2HJ-48" target="go56Lrlr8OW-n8DFi2HJ-46" edge="1">
          <mxGeometry width="100" height="100" relative="1" as="geometry">
            <mxPoint x="780" y="260" as="sourcePoint" />
            <mxPoint x="800" y="388.02" as="targetPoint" />
            <Array as="points">
              <mxPoint x="748" y="348.02" />
              <mxPoint x="738" y="338.02" />
              <mxPoint x="730" y="358.02" />
            </Array>
          </mxGeometry>
        </mxCell>
        <mxCell id="go56Lrlr8OW-n8DFi2HJ-67" value="" style="edgeStyle=elbowEdgeStyle;fontSize=12;html=1;endArrow=ERoneToMany;startArrow=ERmandOne;rounded=0;exitX=1;exitY=0.5;exitDx=0;exitDy=0;entryX=1;entryY=0.75;entryDx=0;entryDy=0;strokeWidth=3;labelBackgroundColor=none;fontColor=default;strokeColor=#FFFFFF;" parent="1" source="go56Lrlr8OW-n8DFi2HJ-47" target="go56Lrlr8OW-n8DFi2HJ-46" edge="1">
          <mxGeometry width="100" height="100" relative="1" as="geometry">
            <mxPoint x="680" y="680" as="sourcePoint" />
            <mxPoint x="700" y="480" as="targetPoint" />
            <Array as="points">
              <mxPoint x="820" y="680" />
              <mxPoint x="780" y="670" />
              <mxPoint x="760" y="700" />
            </Array>
          </mxGeometry>
        </mxCell>
        <mxCell id="go56Lrlr8OW-n8DFi2HJ-68" value="&lt;u&gt;department_id&lt;/u&gt;" style="ellipse;whiteSpace=wrap;html=1;labelBackgroundColor=none;fillColor=#EEEEEE;strokeColor=#FFFFFF;fontColor=#1A1A1A;" parent="1" vertex="1">
          <mxGeometry x="340" y="750" width="120" height="50" as="geometry" />
        </mxCell>
        <mxCell id="go56Lrlr8OW-n8DFi2HJ-143" style="edgeStyle=orthogonalEdgeStyle;rounded=0;orthogonalLoop=1;jettySize=auto;html=1;entryX=0.25;entryY=0;entryDx=0;entryDy=0;labelBackgroundColor=none;fontColor=default;strokeColor=#FFFFFF;" parent="1" source="go56Lrlr8OW-n8DFi2HJ-69" target="go56Lrlr8OW-n8DFi2HJ-46" edge="1">
          <mxGeometry relative="1" as="geometry">
            <Array as="points">
              <mxPoint x="560" y="390" />
              <mxPoint x="630" y="390" />
            </Array>
          </mxGeometry>
        </mxCell>
        <mxCell id="go56Lrlr8OW-n8DFi2HJ-69" value="&lt;u&gt;schedule_id&lt;/u&gt;" style="ellipse;whiteSpace=wrap;html=1;labelBackgroundColor=none;fillColor=#EEEEEE;strokeColor=#FFFFFF;fontColor=#1A1A1A;" parent="1" vertex="1">
          <mxGeometry x="500" y="330" width="120" height="50" as="geometry" />
        </mxCell>
        <mxCell id="go56Lrlr8OW-n8DFi2HJ-92" style="edgeStyle=orthogonalEdgeStyle;rounded=0;orthogonalLoop=1;jettySize=auto;html=1;entryX=0;entryY=0;entryDx=0;entryDy=0;labelBackgroundColor=none;fontColor=default;strokeColor=#FFFFFF;" parent="1" source="go56Lrlr8OW-n8DFi2HJ-75" target="go56Lrlr8OW-n8DFi2HJ-53" edge="1">
          <mxGeometry relative="1" as="geometry">
            <Array as="points">
              <mxPoint x="220" y="152" />
              <mxPoint x="220" y="290" />
            </Array>
          </mxGeometry>
        </mxCell>
        <mxCell id="go56Lrlr8OW-n8DFi2HJ-75" value="&lt;u&gt;book_id&lt;/u&gt;" style="ellipse;whiteSpace=wrap;html=1;labelBackgroundColor=none;fillColor=#EEEEEE;strokeColor=#FFFFFF;fontColor=#1A1A1A;" parent="1" vertex="1">
          <mxGeometry x="30" y="127.5" width="120" height="50" as="geometry" />
        </mxCell>
        <mxCell id="go56Lrlr8OW-n8DFi2HJ-76" value="&lt;u&gt;room_id&lt;/u&gt;" style="ellipse;whiteSpace=wrap;html=1;labelBackgroundColor=none;fillColor=#EEEEEE;strokeColor=#FFFFFF;fontColor=#1A1A1A;" parent="1" vertex="1">
          <mxGeometry x="510" y="112.5" width="120" height="50" as="geometry" />
        </mxCell>
        <mxCell id="go56Lrlr8OW-n8DFi2HJ-77" value="&lt;u&gt;fee_id&lt;/u&gt;" style="ellipse;whiteSpace=wrap;html=1;labelBackgroundColor=none;fillColor=#EEEEEE;strokeColor=#FFFFFF;fontColor=#1A1A1A;" parent="1" vertex="1">
          <mxGeometry x="240" y="416.25" width="120" height="50" as="geometry" />
        </mxCell>
        <mxCell id="go56Lrlr8OW-n8DFi2HJ-119" style="edgeStyle=orthogonalEdgeStyle;rounded=0;orthogonalLoop=1;jettySize=auto;html=1;entryX=0.25;entryY=1;entryDx=0;entryDy=0;labelBackgroundColor=none;fontColor=default;strokeColor=#FFFFFF;" parent="1" source="go56Lrlr8OW-n8DFi2HJ-78" target="go56Lrlr8OW-n8DFi2HJ-47" edge="1">
          <mxGeometry relative="1" as="geometry" />
        </mxCell>
        <mxCell id="go56Lrlr8OW-n8DFi2HJ-78" value="&lt;u&gt;course_id&lt;/u&gt;" style="ellipse;whiteSpace=wrap;html=1;labelBackgroundColor=none;fillColor=#EEEEEE;strokeColor=#FFFFFF;fontColor=#1A1A1A;" parent="1" vertex="1">
          <mxGeometry x="500" y="980" width="120" height="50" as="geometry" />
        </mxCell>
        <mxCell id="go56Lrlr8OW-n8DFi2HJ-164" style="edgeStyle=orthogonalEdgeStyle;rounded=0;orthogonalLoop=1;jettySize=auto;html=1;exitX=1;exitY=0.5;exitDx=0;exitDy=0;entryX=0.5;entryY=1;entryDx=0;entryDy=0;labelBackgroundColor=none;fontColor=default;strokeColor=#FFFFFF;" parent="1" source="go56Lrlr8OW-n8DFi2HJ-79" target="go56Lrlr8OW-n8DFi2HJ-49" edge="1">
          <mxGeometry relative="1" as="geometry" />
        </mxCell>
        <mxCell id="go56Lrlr8OW-n8DFi2HJ-79" value="&lt;u&gt;enrollment_id&lt;/u&gt;" style="ellipse;whiteSpace=wrap;html=1;labelBackgroundColor=none;fillColor=#EEEEEE;strokeColor=#FFFFFF;fontColor=#1A1A1A;" parent="1" vertex="1">
          <mxGeometry x="170" y="1042.5" width="120" height="50" as="geometry" />
        </mxCell>
        <mxCell id="go56Lrlr8OW-n8DFi2HJ-111" style="edgeStyle=orthogonalEdgeStyle;rounded=0;orthogonalLoop=1;jettySize=auto;html=1;entryX=0.594;entryY=0.022;entryDx=0;entryDy=0;entryPerimeter=0;labelBackgroundColor=none;fontColor=default;strokeColor=#FFFFFF;" parent="1" source="go56Lrlr8OW-n8DFi2HJ-80" target="go56Lrlr8OW-n8DFi2HJ-54" edge="1">
          <mxGeometry relative="1" as="geometry">
            <mxPoint x="150" y="670" as="targetPoint" />
            <Array as="points">
              <mxPoint x="140" y="635" />
              <mxPoint x="140" y="660" />
              <mxPoint x="141" y="660" />
            </Array>
          </mxGeometry>
        </mxCell>
        <mxCell id="go56Lrlr8OW-n8DFi2HJ-80" value="&lt;u&gt;student_id&lt;/u&gt;" style="ellipse;whiteSpace=wrap;html=1;labelBackgroundColor=none;fillColor=#EEEEEE;strokeColor=#FFFFFF;fontColor=#1A1A1A;" parent="1" vertex="1">
          <mxGeometry x="10" y="610" width="120" height="50" as="geometry" />
        </mxCell>
        <mxCell id="go56Lrlr8OW-n8DFi2HJ-81" value="&lt;u&gt;faculty_id&lt;/u&gt;" style="ellipse;whiteSpace=wrap;html=1;labelBackgroundColor=none;fillColor=#EEEEEE;strokeColor=#FFFFFF;fontColor=#1A1A1A;" parent="1" vertex="1">
          <mxGeometry x="540" y="546.25" width="120" height="50" as="geometry" />
        </mxCell>
        <mxCell id="go56Lrlr8OW-n8DFi2HJ-95" style="edgeStyle=orthogonalEdgeStyle;rounded=0;orthogonalLoop=1;jettySize=auto;html=1;entryX=0.75;entryY=0;entryDx=0;entryDy=0;labelBackgroundColor=none;fontColor=default;strokeColor=#FFFFFF;" parent="1" source="go56Lrlr8OW-n8DFi2HJ-84" target="go56Lrlr8OW-n8DFi2HJ-53" edge="1">
          <mxGeometry relative="1" as="geometry" />
        </mxCell>
        <mxCell id="go56Lrlr8OW-n8DFi2HJ-84" value="title" style="ellipse;whiteSpace=wrap;html=1;labelBackgroundColor=none;fillColor=#EEEEEE;strokeColor=#FFFFFF;fontColor=#1A1A1A;" parent="1" vertex="1">
          <mxGeometry x="290" y="110" width="120" height="52.5" as="geometry" />
        </mxCell>
        <mxCell id="go56Lrlr8OW-n8DFi2HJ-85" value="aurthor" style="ellipse;whiteSpace=wrap;html=1;labelBackgroundColor=none;fillColor=#EEEEEE;strokeColor=#FFFFFF;fontColor=#1A1A1A;" parent="1" vertex="1">
          <mxGeometry x="30" y="190" width="120" height="52.5" as="geometry" />
        </mxCell>
        <mxCell id="go56Lrlr8OW-n8DFi2HJ-86" value="Status" style="ellipse;whiteSpace=wrap;html=1;labelBackgroundColor=none;fillColor=#EEEEEE;strokeColor=#FFFFFF;fontColor=#1A1A1A;" parent="1" vertex="1">
          <mxGeometry x="20" y="260" width="120" height="52.5" as="geometry" />
        </mxCell>
        <mxCell id="go56Lrlr8OW-n8DFi2HJ-87" value="isbn" style="ellipse;whiteSpace=wrap;html=1;labelBackgroundColor=none;fillColor=#EEEEEE;strokeColor=#FFFFFF;fontColor=#1A1A1A;" parent="1" vertex="1">
          <mxGeometry x="200" y="50" width="120" height="52.5" as="geometry" />
        </mxCell>
        <mxCell id="go56Lrlr8OW-n8DFi2HJ-88" value="loaned_to_student_id" style="ellipse;whiteSpace=wrap;html=1;labelBackgroundColor=none;fillColor=#EEEEEE;strokeColor=#FFFFFF;fontColor=#1A1A1A;" parent="1" vertex="1">
          <mxGeometry x="30" y="40" width="140" height="52.5" as="geometry" />
        </mxCell>
        <mxCell id="go56Lrlr8OW-n8DFi2HJ-90" style="edgeStyle=orthogonalEdgeStyle;rounded=0;orthogonalLoop=1;jettySize=auto;html=1;entryX=0;entryY=0.333;entryDx=0;entryDy=0;entryPerimeter=0;labelBackgroundColor=none;fontColor=default;strokeColor=#FFFFFF;" parent="1" source="go56Lrlr8OW-n8DFi2HJ-86" target="go56Lrlr8OW-n8DFi2HJ-53" edge="1">
          <mxGeometry relative="1" as="geometry" />
        </mxCell>
        <mxCell id="go56Lrlr8OW-n8DFi2HJ-91" style="edgeStyle=orthogonalEdgeStyle;rounded=0;orthogonalLoop=1;jettySize=auto;html=1;entryX=0;entryY=0.167;entryDx=0;entryDy=0;entryPerimeter=0;labelBackgroundColor=none;fontColor=default;strokeColor=#FFFFFF;" parent="1" source="go56Lrlr8OW-n8DFi2HJ-85" target="go56Lrlr8OW-n8DFi2HJ-53" edge="1">
          <mxGeometry relative="1" as="geometry" />
        </mxCell>
        <mxCell id="go56Lrlr8OW-n8DFi2HJ-93" style="edgeStyle=orthogonalEdgeStyle;rounded=0;orthogonalLoop=1;jettySize=auto;html=1;entryX=0.055;entryY=-0.047;entryDx=0;entryDy=0;entryPerimeter=0;labelBackgroundColor=none;fontColor=default;strokeColor=#FFFFFF;" parent="1" source="go56Lrlr8OW-n8DFi2HJ-88" target="go56Lrlr8OW-n8DFi2HJ-53" edge="1">
          <mxGeometry relative="1" as="geometry">
            <mxPoint x="300" y="250" as="targetPoint" />
            <Array as="points">
              <mxPoint x="140" y="130" />
              <mxPoint x="267" y="130" />
            </Array>
          </mxGeometry>
        </mxCell>
        <mxCell id="go56Lrlr8OW-n8DFi2HJ-94" style="edgeStyle=orthogonalEdgeStyle;rounded=0;orthogonalLoop=1;jettySize=auto;html=1;entryX=0.167;entryY=0;entryDx=0;entryDy=0;entryPerimeter=0;labelBackgroundColor=none;fontColor=default;strokeColor=#FFFFFF;" parent="1" source="go56Lrlr8OW-n8DFi2HJ-87" target="go56Lrlr8OW-n8DFi2HJ-53" edge="1">
          <mxGeometry relative="1" as="geometry">
            <Array as="points">
              <mxPoint x="280" y="150" />
              <mxPoint x="280" y="150" />
            </Array>
          </mxGeometry>
        </mxCell>
        <mxCell id="go56Lrlr8OW-n8DFi2HJ-96" value="name" style="ellipse;whiteSpace=wrap;html=1;labelBackgroundColor=none;fillColor=#EEEEEE;strokeColor=#FFFFFF;fontColor=#1A1A1A;" parent="1" vertex="1">
          <mxGeometry x="10" y="540" width="120" height="52.5" as="geometry" />
        </mxCell>
        <mxCell id="go56Lrlr8OW-n8DFi2HJ-97" value="last_name" style="ellipse;whiteSpace=wrap;html=1;labelBackgroundColor=none;fillColor=#EEEEEE;strokeColor=#FFFFFF;fontColor=#1A1A1A;" parent="1" vertex="1">
          <mxGeometry x="10" y="340" width="120" height="52.5" as="geometry" />
        </mxCell>
        <mxCell id="go56Lrlr8OW-n8DFi2HJ-104" style="edgeStyle=orthogonalEdgeStyle;rounded=0;orthogonalLoop=1;jettySize=auto;html=1;entryX=0.5;entryY=0;entryDx=0;entryDy=0;labelBackgroundColor=none;fontColor=default;strokeColor=#FFFFFF;" parent="1" source="go56Lrlr8OW-n8DFi2HJ-98" target="go56Lrlr8OW-n8DFi2HJ-96" edge="1">
          <mxGeometry relative="1" as="geometry" />
        </mxCell>
        <mxCell id="go56Lrlr8OW-n8DFi2HJ-98" value="first_name" style="ellipse;whiteSpace=wrap;html=1;labelBackgroundColor=none;fillColor=#EEEEEE;strokeColor=#FFFFFF;fontColor=#1A1A1A;" parent="1" vertex="1">
          <mxGeometry x="70" y="400" width="120" height="52.5" as="geometry" />
        </mxCell>
        <mxCell id="go56Lrlr8OW-n8DFi2HJ-106" style="edgeStyle=orthogonalEdgeStyle;rounded=0;orthogonalLoop=1;jettySize=auto;html=1;entryX=0.75;entryY=0;entryDx=0;entryDy=0;labelBackgroundColor=none;fontColor=default;strokeColor=#FFFFFF;" parent="1" source="go56Lrlr8OW-n8DFi2HJ-99" target="go56Lrlr8OW-n8DFi2HJ-54" edge="1">
          <mxGeometry relative="1" as="geometry" />
        </mxCell>
        <mxCell id="go56Lrlr8OW-n8DFi2HJ-99" value="date_of_birth&lt;span style=&quot;color: rgba(0, 0, 0, 0); font-family: monospace; font-size: 0px; text-align: start; text-wrap: nowrap;&quot;&gt;%3CmxGraphModel%3E%3Croot%3E%3CmxCell%20id%3D%220%22%2F%3E%3CmxCell%20id%3D%221%22%20parent%3D%220%22%2F%3E%3CmxCell%20id%3D%222%22%20value%3D%22aurthor%22%20style%3D%22ellipse%3BwhiteSpace%3Dwrap%3Bhtml%3D1%3B%22%20vertex%3D%221%22%20parent%3D%221%22%3E%3CmxGeometry%20x%3D%2220%22%20y%3D%22470%22%20width%3D%22120%22%20height%3D%2252.5%22%20as%3D%22geometry%22%2F%3E%3C%2FmxCell%3E%3C%2Froot%3E%3C%2FmxGraphModel%3E&lt;/span&gt;" style="ellipse;whiteSpace=wrap;html=1;labelBackgroundColor=none;fillColor=#EEEEEE;strokeColor=#FFFFFF;fontColor=#1A1A1A;" parent="1" vertex="1">
          <mxGeometry x="100" y="493.75" width="120" height="52.5" as="geometry" />
        </mxCell>
        <mxCell id="go56Lrlr8OW-n8DFi2HJ-112" style="edgeStyle=orthogonalEdgeStyle;rounded=0;orthogonalLoop=1;jettySize=auto;html=1;entryX=0;entryY=1;entryDx=0;entryDy=0;labelBackgroundColor=none;fontColor=default;strokeColor=#FFFFFF;" parent="1" source="go56Lrlr8OW-n8DFi2HJ-100" target="go56Lrlr8OW-n8DFi2HJ-54" edge="1">
          <mxGeometry relative="1" as="geometry" />
        </mxCell>
        <mxCell id="go56Lrlr8OW-n8DFi2HJ-100" value="email&lt;span style=&quot;color: rgba(0, 0, 0, 0); font-family: monospace; font-size: 0px; text-align: start; text-wrap: nowrap;&quot;&gt;%3CmxGraphModel%3E%3Croot%3E%3CmxCell%20id%3D%220%22%2F%3E%3CmxCell%20id%3D%221%22%20parent%3D%220%22%2F%3E%3CmxCell%20id%3D%222%22%20value%3D%22aurthor%22%20style%3D%22ellipse%3BwhiteSpace%3Dwrap%3Bhtml%3D1%3B%22%20vertex%3D%221%22%20parent%3D%221%22%3E%3CmxGeometry%20x%3D%2220%22%20y%3D%22470%22%20width%3D%22120%22%20height%3D%2252.5%22%20as%3D%22geometry%22%2F%3E%3C%2FmxCell%3E%3C%2Froot%3E%3C%2FmxGraphModel%3E&lt;/span&gt;&lt;span style=&quot;color: rgba(0, 0, 0, 0); font-family: monospace; font-size: 0px; text-align: start; text-wrap: nowrap;&quot;&gt;%3CmxGraphModel%3E%3Croot%3E%3CmxCell%20id%3D%220%22%2F%3E%3CmxCell%20id%3D%221%22%20parent%3D%220%22%2F%3E%3CmxCell%20id%3D%222%22%20value%3D%22aurthor%22%20style%3D%22ellipse%3BwhiteSpace%3Dwrap%3Bhtml%3D1%3B%22%20vertex%3D%221%22%20parent%3D%221%22%3E%3CmxGeometry%20x%3D%2220%22%20y%3D%22470%22%20width%3D%22120%22%20height%3D%2252.5%22%20as%3D%22geometry%22%2F%3E%3C%2FmxCell%3E%3C%2Froot%3E%3C%2FmxGraphModel%3E&lt;/span&gt;" style="ellipse;whiteSpace=wrap;html=1;labelBackgroundColor=none;fillColor=#EEEEEE;strokeColor=#FFFFFF;fontColor=#1A1A1A;" parent="1" vertex="1">
          <mxGeometry x="10" y="780" width="120" height="52.5" as="geometry" />
        </mxCell>
        <mxCell id="go56Lrlr8OW-n8DFi2HJ-101" value="Phone_number" style="ellipse;whiteSpace=wrap;html=1;labelBackgroundColor=none;fillColor=#EEEEEE;strokeColor=#FFFFFF;fontColor=#1A1A1A;" parent="1" vertex="1">
          <mxGeometry x="80" y="860" width="120" height="52.5" as="geometry" />
        </mxCell>
        <mxCell id="go56Lrlr8OW-n8DFi2HJ-105" style="edgeStyle=orthogonalEdgeStyle;rounded=0;orthogonalLoop=1;jettySize=auto;html=1;entryX=0.333;entryY=0;entryDx=0;entryDy=0;entryPerimeter=0;labelBackgroundColor=none;fontColor=default;strokeColor=#FFFFFF;" parent="1" source="go56Lrlr8OW-n8DFi2HJ-97" target="go56Lrlr8OW-n8DFi2HJ-96" edge="1">
          <mxGeometry relative="1" as="geometry" />
        </mxCell>
        <mxCell id="go56Lrlr8OW-n8DFi2HJ-108" style="edgeStyle=orthogonalEdgeStyle;rounded=0;orthogonalLoop=1;jettySize=auto;html=1;entryX=0.917;entryY=-0.078;entryDx=0;entryDy=0;entryPerimeter=0;labelBackgroundColor=none;fontColor=default;strokeColor=#FFFFFF;" parent="1" source="go56Lrlr8OW-n8DFi2HJ-96" target="go56Lrlr8OW-n8DFi2HJ-54" edge="1">
          <mxGeometry relative="1" as="geometry">
            <Array as="points">
              <mxPoint x="180" y="566" />
            </Array>
          </mxGeometry>
        </mxCell>
        <mxCell id="go56Lrlr8OW-n8DFi2HJ-113" style="edgeStyle=orthogonalEdgeStyle;rounded=0;orthogonalLoop=1;jettySize=auto;html=1;entryX=0.583;entryY=1;entryDx=0;entryDy=0;entryPerimeter=0;labelBackgroundColor=none;fontColor=default;strokeColor=#FFFFFF;" parent="1" source="go56Lrlr8OW-n8DFi2HJ-101" target="go56Lrlr8OW-n8DFi2HJ-54" edge="1">
          <mxGeometry relative="1" as="geometry" />
        </mxCell>
        <mxCell id="go56Lrlr8OW-n8DFi2HJ-120" style="edgeStyle=orthogonalEdgeStyle;rounded=0;orthogonalLoop=1;jettySize=auto;html=1;entryX=0.5;entryY=1;entryDx=0;entryDy=0;labelBackgroundColor=none;fontColor=default;strokeColor=#FFFFFF;" parent="1" source="go56Lrlr8OW-n8DFi2HJ-116" target="go56Lrlr8OW-n8DFi2HJ-47" edge="1">
          <mxGeometry relative="1" as="geometry">
            <Array as="points">
              <mxPoint x="630" y="1020" />
              <mxPoint x="740" y="1020" />
            </Array>
          </mxGeometry>
        </mxCell>
        <mxCell id="go56Lrlr8OW-n8DFi2HJ-116" value="course_name" style="ellipse;whiteSpace=wrap;html=1;labelBackgroundColor=none;fillColor=#EEEEEE;strokeColor=#FFFFFF;fontColor=#1A1A1A;" parent="1" vertex="1">
          <mxGeometry x="570" y="1040" width="120" height="52.5" as="geometry" />
        </mxCell>
        <mxCell id="go56Lrlr8OW-n8DFi2HJ-117" value="credits" style="ellipse;whiteSpace=wrap;html=1;labelBackgroundColor=none;fillColor=#EEEEEE;strokeColor=#FFFFFF;fontColor=#1A1A1A;" parent="1" vertex="1">
          <mxGeometry x="720" y="1040" width="120" height="52.5" as="geometry" />
        </mxCell>
        <mxCell id="go56Lrlr8OW-n8DFi2HJ-118" style="edgeStyle=orthogonalEdgeStyle;rounded=0;orthogonalLoop=1;jettySize=auto;html=1;entryX=0.833;entryY=1;entryDx=0;entryDy=0;entryPerimeter=0;labelBackgroundColor=none;fontColor=default;strokeColor=#FFFFFF;" parent="1" source="go56Lrlr8OW-n8DFi2HJ-117" target="go56Lrlr8OW-n8DFi2HJ-47" edge="1">
          <mxGeometry relative="1" as="geometry" />
        </mxCell>
        <mxCell id="go56Lrlr8OW-n8DFi2HJ-121" value="department_name" style="ellipse;whiteSpace=wrap;html=1;labelBackgroundColor=none;fillColor=#EEEEEE;strokeColor=#FFFFFF;fontColor=#1A1A1A;" parent="1" vertex="1">
          <mxGeometry x="460" y="890" width="120" height="52.5" as="geometry" />
        </mxCell>
        <mxCell id="go56Lrlr8OW-n8DFi2HJ-122" value="head_faculty_id" style="ellipse;whiteSpace=wrap;html=1;labelBackgroundColor=none;fillColor=#EEEEEE;strokeColor=#FFFFFF;fontColor=#1A1A1A;" parent="1" vertex="1">
          <mxGeometry x="425" y="697.5" width="120" height="52.5" as="geometry" />
        </mxCell>
        <mxCell id="go56Lrlr8OW-n8DFi2HJ-124" style="edgeStyle=orthogonalEdgeStyle;rounded=0;orthogonalLoop=1;jettySize=auto;html=1;entryX=0.417;entryY=1;entryDx=0;entryDy=0;entryPerimeter=0;labelBackgroundColor=none;fontColor=default;strokeColor=#FFFFFF;" parent="1" source="go56Lrlr8OW-n8DFi2HJ-121" target="go56Lrlr8OW-n8DFi2HJ-51" edge="1">
          <mxGeometry relative="1" as="geometry">
            <Array as="points">
              <mxPoint x="440" y="910" />
            </Array>
          </mxGeometry>
        </mxCell>
        <mxCell id="go56Lrlr8OW-n8DFi2HJ-126" style="edgeStyle=orthogonalEdgeStyle;rounded=0;orthogonalLoop=1;jettySize=auto;html=1;entryX=0.791;entryY=-0.022;entryDx=0;entryDy=0;entryPerimeter=0;labelBackgroundColor=none;fontColor=default;strokeColor=#FFFFFF;" parent="1" source="go56Lrlr8OW-n8DFi2HJ-122" target="go56Lrlr8OW-n8DFi2HJ-51" edge="1">
          <mxGeometry relative="1" as="geometry" />
        </mxCell>
        <mxCell id="go56Lrlr8OW-n8DFi2HJ-128" style="edgeStyle=orthogonalEdgeStyle;rounded=0;orthogonalLoop=1;jettySize=auto;html=1;entryX=0.417;entryY=0;entryDx=0;entryDy=0;entryPerimeter=0;labelBackgroundColor=none;fontColor=default;strokeColor=#FFFFFF;" parent="1" source="go56Lrlr8OW-n8DFi2HJ-68" target="go56Lrlr8OW-n8DFi2HJ-51" edge="1">
          <mxGeometry relative="1" as="geometry">
            <Array as="points">
              <mxPoint x="440" y="800" />
              <mxPoint x="440" y="800" />
            </Array>
          </mxGeometry>
        </mxCell>
        <mxCell id="go56Lrlr8OW-n8DFi2HJ-129" value="first_name" style="ellipse;whiteSpace=wrap;html=1;labelBackgroundColor=none;fillColor=#EEEEEE;strokeColor=#FFFFFF;fontColor=#1A1A1A;" parent="1" vertex="1">
          <mxGeometry x="680" y="498" width="120" height="52.5" as="geometry" />
        </mxCell>
        <mxCell id="go56Lrlr8OW-n8DFi2HJ-136" style="edgeStyle=orthogonalEdgeStyle;rounded=0;orthogonalLoop=1;jettySize=auto;html=1;entryX=1;entryY=0.5;entryDx=0;entryDy=0;labelBackgroundColor=none;fontColor=default;strokeColor=#FFFFFF;" parent="1" source="go56Lrlr8OW-n8DFi2HJ-130" target="go56Lrlr8OW-n8DFi2HJ-50" edge="1">
          <mxGeometry relative="1" as="geometry" />
        </mxCell>
        <mxCell id="go56Lrlr8OW-n8DFi2HJ-130" value="last_name" style="ellipse;whiteSpace=wrap;html=1;labelBackgroundColor=none;fillColor=#EEEEEE;strokeColor=#FFFFFF;fontColor=#1A1A1A;" parent="1" vertex="1">
          <mxGeometry x="690" y="592.5" width="120" height="52.5" as="geometry" />
        </mxCell>
        <mxCell id="go56Lrlr8OW-n8DFi2HJ-131" value="email" style="ellipse;whiteSpace=wrap;html=1;labelBackgroundColor=none;fillColor=#EEEEEE;strokeColor=#FFFFFF;fontColor=#1A1A1A;" parent="1" vertex="1">
          <mxGeometry x="600" y="760" width="120" height="52.5" as="geometry" />
        </mxCell>
        <mxCell id="go56Lrlr8OW-n8DFi2HJ-138" style="edgeStyle=orthogonalEdgeStyle;rounded=0;orthogonalLoop=1;jettySize=auto;html=1;entryX=1;entryY=0.75;entryDx=0;entryDy=0;labelBackgroundColor=none;fontColor=default;strokeColor=#FFFFFF;" parent="1" source="go56Lrlr8OW-n8DFi2HJ-132" target="go56Lrlr8OW-n8DFi2HJ-50" edge="1">
          <mxGeometry relative="1" as="geometry">
            <Array as="points">
              <mxPoint x="750" y="715" />
            </Array>
          </mxGeometry>
        </mxCell>
        <mxCell id="go56Lrlr8OW-n8DFi2HJ-132" value="phone_number" style="ellipse;whiteSpace=wrap;html=1;labelBackgroundColor=none;fillColor=#EEEEEE;strokeColor=#FFFFFF;fontColor=#1A1A1A;" parent="1" vertex="1">
          <mxGeometry x="680" y="837.5" width="120" height="52.5" as="geometry" />
        </mxCell>
        <mxCell id="go56Lrlr8OW-n8DFi2HJ-133" value="hire_date" style="ellipse;whiteSpace=wrap;html=1;labelBackgroundColor=none;fillColor=#EEEEEE;strokeColor=#FFFFFF;fontColor=#1A1A1A;" parent="1" vertex="1">
          <mxGeometry x="475" y="607.5" width="120" height="52.5" as="geometry" />
        </mxCell>
        <mxCell id="go56Lrlr8OW-n8DFi2HJ-134" style="edgeStyle=orthogonalEdgeStyle;rounded=0;orthogonalLoop=1;jettySize=auto;html=1;entryX=0.333;entryY=0;entryDx=0;entryDy=0;entryPerimeter=0;labelBackgroundColor=none;fontColor=default;strokeColor=#FFFFFF;" parent="1" source="go56Lrlr8OW-n8DFi2HJ-81" target="go56Lrlr8OW-n8DFi2HJ-50" edge="1">
          <mxGeometry relative="1" as="geometry">
            <Array as="points">
              <mxPoint x="630" y="633" />
              <mxPoint x="650" y="633" />
            </Array>
          </mxGeometry>
        </mxCell>
        <mxCell id="go56Lrlr8OW-n8DFi2HJ-135" style="edgeStyle=orthogonalEdgeStyle;rounded=0;orthogonalLoop=1;jettySize=auto;html=1;entryX=0.079;entryY=-0.042;entryDx=0;entryDy=0;entryPerimeter=0;labelBackgroundColor=none;fontColor=default;strokeColor=#FFFFFF;" parent="1" source="go56Lrlr8OW-n8DFi2HJ-133" target="go56Lrlr8OW-n8DFi2HJ-50" edge="1">
          <mxGeometry relative="1" as="geometry" />
        </mxCell>
        <mxCell id="go56Lrlr8OW-n8DFi2HJ-137" style="edgeStyle=orthogonalEdgeStyle;rounded=0;orthogonalLoop=1;jettySize=auto;html=1;entryX=0.417;entryY=1;entryDx=0;entryDy=0;entryPerimeter=0;labelBackgroundColor=none;fontColor=default;strokeColor=#FFFFFF;" parent="1" source="go56Lrlr8OW-n8DFi2HJ-131" target="go56Lrlr8OW-n8DFi2HJ-50" edge="1">
          <mxGeometry relative="1" as="geometry" />
        </mxCell>
        <mxCell id="go56Lrlr8OW-n8DFi2HJ-139" style="edgeStyle=orthogonalEdgeStyle;rounded=0;orthogonalLoop=1;jettySize=auto;html=1;entryX=0.583;entryY=0;entryDx=0;entryDy=0;entryPerimeter=0;exitX=0.083;exitY=0.8;exitDx=0;exitDy=0;exitPerimeter=0;labelBackgroundColor=none;fontColor=default;strokeColor=#FFFFFF;" parent="1" source="go56Lrlr8OW-n8DFi2HJ-129" target="go56Lrlr8OW-n8DFi2HJ-50" edge="1">
          <mxGeometry relative="1" as="geometry">
            <Array as="points">
              <mxPoint x="680" y="540" />
            </Array>
          </mxGeometry>
        </mxCell>
        <mxCell id="go56Lrlr8OW-n8DFi2HJ-140" value="time_slot" style="ellipse;whiteSpace=wrap;html=1;labelBackgroundColor=none;fillColor=#EEEEEE;strokeColor=#FFFFFF;fontColor=#1A1A1A;" parent="1" vertex="1">
          <mxGeometry x="620" y="297.5" width="120" height="52.5" as="geometry" />
        </mxCell>
        <mxCell id="go56Lrlr8OW-n8DFi2HJ-142" style="edgeStyle=orthogonalEdgeStyle;rounded=0;orthogonalLoop=1;jettySize=auto;html=1;exitX=1;exitY=0.5;exitDx=0;exitDy=0;entryX=0;entryY=0.5;entryDx=0;entryDy=0;labelBackgroundColor=none;fontColor=default;strokeColor=#FFFFFF;" parent="1" source="go56Lrlr8OW-n8DFi2HJ-141" target="go56Lrlr8OW-n8DFi2HJ-46" edge="1">
          <mxGeometry relative="1" as="geometry" />
        </mxCell>
        <mxCell id="go56Lrlr8OW-n8DFi2HJ-141" value="day" style="ellipse;whiteSpace=wrap;html=1;labelBackgroundColor=none;fillColor=#EEEEEE;strokeColor=#FFFFFF;fontColor=#1A1A1A;" parent="1" vertex="1">
          <mxGeometry x="460" y="413.75" width="120" height="52.5" as="geometry" />
        </mxCell>
        <mxCell id="go56Lrlr8OW-n8DFi2HJ-144" style="edgeStyle=orthogonalEdgeStyle;rounded=0;orthogonalLoop=1;jettySize=auto;html=1;entryX=0.652;entryY=0;entryDx=0;entryDy=0;entryPerimeter=0;labelBackgroundColor=none;fontColor=default;strokeColor=#FFFFFF;" parent="1" source="go56Lrlr8OW-n8DFi2HJ-140" target="go56Lrlr8OW-n8DFi2HJ-46" edge="1">
          <mxGeometry relative="1" as="geometry">
            <Array as="points">
              <mxPoint x="678" y="370" />
              <mxPoint x="678" y="370" />
            </Array>
          </mxGeometry>
        </mxCell>
        <mxCell id="go56Lrlr8OW-n8DFi2HJ-153" style="edgeStyle=orthogonalEdgeStyle;rounded=0;orthogonalLoop=1;jettySize=auto;html=1;entryX=0.504;entryY=0;entryDx=0;entryDy=0;entryPerimeter=0;labelBackgroundColor=none;fontColor=default;strokeColor=#FFFFFF;" parent="1" source="go56Lrlr8OW-n8DFi2HJ-145" target="go56Lrlr8OW-n8DFi2HJ-52" edge="1">
          <mxGeometry relative="1" as="geometry">
            <mxPoint x="390" y="480" as="targetPoint" />
          </mxGeometry>
        </mxCell>
        <mxCell id="go56Lrlr8OW-n8DFi2HJ-145" value="amount" style="ellipse;whiteSpace=wrap;html=1;labelBackgroundColor=none;fillColor=#EEEEEE;strokeColor=#FFFFFF;fontColor=#1A1A1A;" parent="1" vertex="1">
          <mxGeometry x="330" y="363.75" width="120" height="52.5" as="geometry" />
        </mxCell>
        <mxCell id="go56Lrlr8OW-n8DFi2HJ-146" value="status" style="ellipse;whiteSpace=wrap;html=1;labelBackgroundColor=none;fillColor=#EEEEEE;strokeColor=#FFFFFF;fontColor=#1A1A1A;" parent="1" vertex="1">
          <mxGeometry x="270" y="570" width="120" height="52.5" as="geometry" />
        </mxCell>
        <mxCell id="go56Lrlr8OW-n8DFi2HJ-148" style="edgeStyle=orthogonalEdgeStyle;rounded=0;orthogonalLoop=1;jettySize=auto;html=1;exitX=0.75;exitY=0.095;exitDx=0;exitDy=0;exitPerimeter=0;entryX=0.75;entryY=1;entryDx=0;entryDy=0;labelBackgroundColor=none;fontColor=default;strokeColor=#FFFFFF;" parent="1" source="go56Lrlr8OW-n8DFi2HJ-147" target="go56Lrlr8OW-n8DFi2HJ-52" edge="1">
          <mxGeometry relative="1" as="geometry">
            <mxPoint x="420" y="560" as="targetPoint" />
            <Array as="points" />
          </mxGeometry>
        </mxCell>
        <mxCell id="go56Lrlr8OW-n8DFi2HJ-147" value="due_date" style="ellipse;whiteSpace=wrap;html=1;labelBackgroundColor=none;fillColor=#EEEEEE;strokeColor=#FFFFFF;fontColor=#1A1A1A;" parent="1" vertex="1">
          <mxGeometry x="330" y="645" width="120" height="52.5" as="geometry" />
        </mxCell>
        <mxCell id="go56Lrlr8OW-n8DFi2HJ-150" style="edgeStyle=orthogonalEdgeStyle;rounded=0;orthogonalLoop=1;jettySize=auto;html=1;entryX=0.667;entryY=1;entryDx=0;entryDy=0;entryPerimeter=0;labelBackgroundColor=none;fontColor=default;strokeColor=#FFFFFF;" parent="1" source="go56Lrlr8OW-n8DFi2HJ-146" target="go56Lrlr8OW-n8DFi2HJ-52" edge="1">
          <mxGeometry relative="1" as="geometry">
            <Array as="points">
              <mxPoint x="410" y="596" />
            </Array>
          </mxGeometry>
        </mxCell>
        <mxCell id="go56Lrlr8OW-n8DFi2HJ-152" style="edgeStyle=orthogonalEdgeStyle;rounded=0;orthogonalLoop=1;jettySize=auto;html=1;entryX=-0.004;entryY=0.117;entryDx=0;entryDy=0;entryPerimeter=0;labelBackgroundColor=none;fontColor=default;strokeColor=#FFFFFF;" parent="1" source="go56Lrlr8OW-n8DFi2HJ-77" target="go56Lrlr8OW-n8DFi2HJ-52" edge="1">
          <mxGeometry relative="1" as="geometry" />
        </mxCell>
        <mxCell id="go56Lrlr8OW-n8DFi2HJ-154" value="room_number" style="ellipse;whiteSpace=wrap;html=1;labelBackgroundColor=none;fillColor=#EEEEEE;strokeColor=#FFFFFF;fontColor=#1A1A1A;" parent="1" vertex="1">
          <mxGeometry x="570" y="50" width="120" height="52.5" as="geometry" />
        </mxCell>
        <mxCell id="go56Lrlr8OW-n8DFi2HJ-158" style="edgeStyle=orthogonalEdgeStyle;rounded=0;orthogonalLoop=1;jettySize=auto;html=1;entryX=1;entryY=0.25;entryDx=0;entryDy=0;labelBackgroundColor=none;fontColor=default;strokeColor=#FFFFFF;" parent="1" source="go56Lrlr8OW-n8DFi2HJ-156" target="go56Lrlr8OW-n8DFi2HJ-48" edge="1">
          <mxGeometry relative="1" as="geometry" />
        </mxCell>
        <mxCell id="go56Lrlr8OW-n8DFi2HJ-156" value="capacity" style="ellipse;whiteSpace=wrap;html=1;labelBackgroundColor=none;fillColor=#EEEEEE;strokeColor=#FFFFFF;fontColor=#1A1A1A;" parent="1" vertex="1">
          <mxGeometry x="700" y="162.5" width="120" height="52.5" as="geometry" />
        </mxCell>
        <mxCell id="go56Lrlr8OW-n8DFi2HJ-157" value="building" style="ellipse;whiteSpace=wrap;html=1;labelBackgroundColor=none;fillColor=#EEEEEE;strokeColor=#FFFFFF;fontColor=#1A1A1A;" parent="1" vertex="1">
          <mxGeometry x="710" y="75" width="120" height="52.5" as="geometry" />
        </mxCell>
        <mxCell id="go56Lrlr8OW-n8DFi2HJ-159" style="edgeStyle=orthogonalEdgeStyle;rounded=0;orthogonalLoop=1;jettySize=auto;html=1;entryX=0.11;entryY=-0.042;entryDx=0;entryDy=0;entryPerimeter=0;labelBackgroundColor=none;fontColor=default;strokeColor=#FFFFFF;" parent="1" source="go56Lrlr8OW-n8DFi2HJ-76" target="go56Lrlr8OW-n8DFi2HJ-48" edge="1">
          <mxGeometry relative="1" as="geometry" />
        </mxCell>
        <mxCell id="go56Lrlr8OW-n8DFi2HJ-160" style="edgeStyle=orthogonalEdgeStyle;rounded=0;orthogonalLoop=1;jettySize=auto;html=1;exitX=0.5;exitY=1;exitDx=0;exitDy=0;entryX=0.371;entryY=-0.042;entryDx=0;entryDy=0;entryPerimeter=0;labelBackgroundColor=none;fontColor=default;strokeColor=#FFFFFF;" parent="1" source="go56Lrlr8OW-n8DFi2HJ-154" target="go56Lrlr8OW-n8DFi2HJ-48" edge="1">
          <mxGeometry relative="1" as="geometry">
            <Array as="points">
              <mxPoint x="645" y="103" />
            </Array>
          </mxGeometry>
        </mxCell>
        <mxCell id="go56Lrlr8OW-n8DFi2HJ-161" style="edgeStyle=orthogonalEdgeStyle;rounded=0;orthogonalLoop=1;jettySize=auto;html=1;entryX=0.662;entryY=-0.062;entryDx=0;entryDy=0;entryPerimeter=0;labelBackgroundColor=none;fontColor=default;strokeColor=#FFFFFF;" parent="1" source="go56Lrlr8OW-n8DFi2HJ-157" target="go56Lrlr8OW-n8DFi2HJ-48" edge="1">
          <mxGeometry relative="1" as="geometry">
            <Array as="points">
              <mxPoint x="680" y="101" />
            </Array>
          </mxGeometry>
        </mxCell>
        <mxCell id="go56Lrlr8OW-n8DFi2HJ-165" style="edgeStyle=orthogonalEdgeStyle;rounded=0;orthogonalLoop=1;jettySize=auto;html=1;entryX=0.25;entryY=1;entryDx=0;entryDy=0;labelBackgroundColor=none;fontColor=default;strokeColor=#FFFFFF;" parent="1" source="go56Lrlr8OW-n8DFi2HJ-162" target="go56Lrlr8OW-n8DFi2HJ-49" edge="1">
          <mxGeometry relative="1" as="geometry" />
        </mxCell>
        <mxCell id="go56Lrlr8OW-n8DFi2HJ-162" value="enrollement_date" style="ellipse;whiteSpace=wrap;html=1;labelBackgroundColor=none;fillColor=#EEEEEE;strokeColor=#FFFFFF;fontColor=#1A1A1A;" parent="1" vertex="1">
          <mxGeometry x="100" y="980" width="120" height="52.5" as="geometry" />
        </mxCell>
        <mxCell id="go56Lrlr8OW-n8DFi2HJ-163" value="grade" style="ellipse;whiteSpace=wrap;html=1;labelBackgroundColor=none;fillColor=#EEEEEE;strokeColor=#FFFFFF;fontColor=#1A1A1A;" parent="1" vertex="1">
          <mxGeometry x="350" y="1030" width="120" height="52.5" as="geometry" />
        </mxCell>
        <mxCell id="go56Lrlr8OW-n8DFi2HJ-166" style="edgeStyle=orthogonalEdgeStyle;rounded=0;orthogonalLoop=1;jettySize=auto;html=1;entryX=0.631;entryY=1.042;entryDx=0;entryDy=0;entryPerimeter=0;labelBackgroundColor=none;fontColor=default;strokeColor=#FFFFFF;" parent="1" source="go56Lrlr8OW-n8DFi2HJ-163" target="go56Lrlr8OW-n8DFi2HJ-49" edge="1">
          <mxGeometry relative="1" as="geometry" />
        </mxCell>
      </root>
    </mxGraphModel>
  </diagram>
</mxfile>
